<svg width="50" height="50" viewBox="0 0 50 50" fill="none" xmlns="http://www.w3.org/2000/svg">
<circle cx="25" cy="25" r="25" fill="#FF0000"/>
<path d="M15.6332 12.9926C15.7894 13.1487 15.9134 13.334 15.9979 13.538C16.0825 13.742 16.126 13.9606 16.126 14.1815C16.126 14.4023 16.0825 14.6209 15.9979 14.8249C15.9134 15.0289 15.7894 15.2142 15.6332 15.3703C13.1117 17.8922 11.6952 21.3124 11.6952 24.8786C11.6952 28.4448 13.1117 31.8649 15.6332 34.3868C15.7937 34.5418 15.9217 34.7272 16.0098 34.9323C16.0978 35.1373 16.1442 35.3578 16.1461 35.5809C16.1481 35.804 16.1056 36.0253 16.0211 36.2318C15.9366 36.4383 15.8118 36.6259 15.654 36.7837C15.4963 36.9414 15.3086 37.0662 15.1021 37.1507C14.8956 37.2352 14.6744 37.2777 14.4512 37.2758C14.2281 37.2738 14.0076 37.2275 13.8026 37.1394C13.5976 37.0513 13.4122 36.9233 13.2572 36.7628C6.69206 30.1994 6.69206 19.5561 13.2572 12.9926C13.5723 12.6776 13.9996 12.5006 14.4452 12.5006C14.8908 12.5006 15.3181 12.6776 15.6332 12.9926ZM37.0274 12.9926C43.5909 19.5577 43.5909 30.1994 37.0274 36.7628C36.7123 37.0781 36.2849 37.2554 35.8392 37.2555C35.3934 37.2557 34.9659 37.0788 34.6506 36.7637C34.3353 36.4486 34.158 36.0212 34.1579 35.5754C34.1577 35.1297 34.3347 34.7021 34.6497 34.3868C37.1712 31.8649 38.5877 28.4448 38.5877 24.8786C38.5877 21.3124 37.1712 17.8922 34.6497 15.3703C34.3344 15.055 34.1573 14.6274 34.1573 14.1815C34.1573 13.7355 34.3344 13.3079 34.6497 12.9926C34.965 12.6773 35.3927 12.5002 35.8386 12.5002C36.2845 12.5002 36.7121 12.6773 37.0274 12.9926ZM20.6188 17.8219C20.9338 18.137 21.1108 18.5644 21.1108 19.0099C21.1108 19.4555 20.9338 19.8828 20.6188 20.1979C20.0071 20.8096 19.5218 21.5358 19.1908 22.335C18.8597 23.1342 18.6893 23.9908 18.6893 24.8559C18.6893 25.7209 18.8597 26.5775 19.1908 27.3768C19.5218 28.176 20.0071 28.9021 20.6188 29.5138C20.7748 29.6699 20.8986 29.8552 20.9829 30.0592C21.0673 30.2631 21.1107 30.4817 21.1106 30.7024C21.1106 30.9231 21.067 31.1417 20.9825 31.3455C20.898 31.5494 20.7741 31.7347 20.618 31.8907C20.4618 32.0467 20.2765 32.1704 20.0726 32.2548C19.8686 32.3392 19.6501 32.3826 19.4294 32.3825C19.2087 32.3824 18.9901 32.3389 18.7862 32.2543C18.5824 32.1698 18.3971 32.0459 18.2411 31.8898C16.3756 30.0243 15.3276 27.4941 15.3276 24.8559C15.3276 22.2176 16.3756 19.6875 18.2411 17.8219C18.3972 17.6657 18.5825 17.5418 18.7865 17.4572C18.9905 17.3726 19.2091 17.3291 19.43 17.3291C19.6508 17.3291 19.8694 17.3726 20.0734 17.4572C20.2774 17.5418 20.4627 17.6657 20.6188 17.8219ZM32.3107 17.8219C34.1762 19.6875 35.2242 22.2176 35.2242 24.8559C35.2242 27.4941 34.1762 30.0243 32.3107 31.8898C31.9938 32.1959 31.5693 32.3653 31.1287 32.3615C30.6881 32.3576 30.2667 32.1809 29.9551 31.8694C29.6436 31.5578 29.4669 31.1363 29.463 30.6958C29.4592 30.2552 29.6286 29.8307 29.9347 29.5138C30.5464 28.9021 31.0316 28.176 31.3627 27.3768C31.6938 26.5775 31.8642 25.7209 31.8642 24.8559C31.8642 23.9908 31.6938 23.1342 31.3627 22.335C31.0316 21.5358 30.5464 20.8096 29.9347 20.1979C29.6286 19.881 29.4592 19.4566 29.463 19.016C29.4669 18.5754 29.6436 18.154 29.9551 17.8424C30.2667 17.5308 30.6881 17.3541 31.1287 17.3503C31.5693 17.3465 31.9938 17.5158 32.3107 17.8219ZM25.2767 22.4765C25.6077 22.4765 25.9355 22.5417 26.2413 22.6684C26.5471 22.795 26.825 22.9807 27.059 23.2147C27.2931 23.4488 27.4787 23.7267 27.6054 24.0325C27.7321 24.3383 27.7973 24.666 27.7973 24.997C27.7973 25.328 27.7321 25.6558 27.6054 25.9616C27.4787 26.2674 27.2931 26.5453 27.059 26.7793C26.825 27.0134 26.5471 27.199 26.2413 27.3257C25.9355 27.4524 25.6077 27.5175 25.2767 27.5175C24.6083 27.5175 23.9671 27.252 23.4945 26.7793C23.0218 26.3066 22.7562 25.6655 22.7562 24.997C22.7562 24.3285 23.0218 23.6874 23.4945 23.2147C23.9671 22.7421 24.6083 22.4765 25.2767 22.4765Z" fill="white"/>
</svg>
