<svg width="42" height="42" viewBox="0 0 42 42" fill="none" xmlns="http://www.w3.org/2000/svg">
<path d="M11.6332 8.99261C11.7894 9.14866 11.9134 9.33399 11.9979 9.53798C12.0825 9.74197 12.126 9.96063 12.126 10.1815C12.126 10.4023 12.0825 10.6209 11.9979 10.8249C11.9134 11.0289 11.7894 11.2142 11.6332 11.3703C9.11173 13.8922 7.69522 17.3124 7.69522 20.8786C7.69522 24.4448 9.11173 27.8649 11.6332 30.3868C11.7937 30.5418 11.9217 30.7272 12.0098 30.9323C12.0978 31.1373 12.1442 31.3578 12.1461 31.5809C12.1481 31.804 12.1056 32.0253 12.0211 32.2318C11.9366 32.4383 11.8118 32.6259 11.654 32.7837C11.4963 32.9414 11.3086 33.0662 11.1021 33.1507C10.8956 33.2352 10.6744 33.2777 10.4512 33.2758C10.2281 33.2738 10.0076 33.2275 9.80262 33.1394C9.59761 33.0513 9.4122 32.9233 9.25719 32.7628C2.69206 26.1994 2.69206 15.5561 9.25719 8.99261C9.5723 8.67759 9.99963 8.50062 10.4452 8.50062C10.8908 8.50062 11.3181 8.67759 11.6332 8.99261ZM33.0274 8.99261C39.5909 15.5577 39.5909 26.1994 33.0274 32.7628C32.7123 33.0781 32.2849 33.2554 31.8392 33.2555C31.3934 33.2557 30.9659 33.0788 30.6506 32.7637C30.3353 32.4486 30.158 32.0212 30.1579 31.5754C30.1577 31.1297 30.3347 30.7021 30.6497 30.3868C33.1712 27.8649 34.5877 24.4448 34.5877 20.8786C34.5877 17.3124 33.1712 13.8922 30.6497 11.3703C30.3344 11.055 30.1573 10.6274 30.1573 10.1815C30.1573 9.73555 30.3344 9.30791 30.6497 8.99261C30.965 8.6773 31.3927 8.50017 31.8386 8.50017C32.2845 8.50017 32.7121 8.6773 33.0274 8.99261ZM16.6188 13.8219C16.9338 14.137 17.1108 14.5644 17.1108 15.0099C17.1108 15.4555 16.9338 15.8828 16.6188 16.1979C16.0071 16.8096 15.5218 17.5358 15.1908 18.335C14.8597 19.1342 14.6893 19.9908 14.6893 20.8559C14.6893 21.7209 14.8597 22.5775 15.1908 23.3768C15.5218 24.176 16.0071 24.9021 16.6188 25.5138C16.7748 25.6699 16.8986 25.8552 16.9829 26.0592C17.0673 26.2631 17.1107 26.4817 17.1106 26.7024C17.1106 26.9231 17.067 27.1417 16.9825 27.3455C16.898 27.5494 16.7741 27.7347 16.618 27.8907C16.4618 28.0467 16.2765 28.1704 16.0726 28.2548C15.8686 28.3392 15.6501 28.3826 15.4294 28.3825C15.2087 28.3824 14.9901 28.3389 14.7862 28.2543C14.5824 28.1698 14.3971 28.0459 14.2411 27.8898C12.3756 26.0243 11.3276 23.4941 11.3276 20.8559C11.3276 18.2176 12.3756 15.6875 14.2411 13.8219C14.3972 13.6657 14.5825 13.5418 14.7865 13.4572C14.9905 13.3726 15.2091 13.3291 15.43 13.3291C15.6508 13.3291 15.8694 13.3726 16.0734 13.4572C16.2774 13.5418 16.4627 13.6657 16.6188 13.8219ZM28.3107 13.8219C30.1762 15.6875 31.2242 18.2176 31.2242 20.8559C31.2242 23.4941 30.1762 26.0243 28.3107 27.8898C27.9938 28.1959 27.5693 28.3653 27.1287 28.3615C26.6881 28.3576 26.2667 28.1809 25.9551 27.8694C25.6436 27.5578 25.4669 27.1363 25.463 26.6958C25.4592 26.2552 25.6286 25.8307 25.9347 25.5138C26.5464 24.9021 27.0316 24.176 27.3627 23.3768C27.6938 22.5775 27.8642 21.7209 27.8642 20.8559C27.8642 19.9908 27.6938 19.1342 27.3627 18.335C27.0316 17.5358 26.5464 16.8096 25.9347 16.1979C25.6286 15.881 25.4592 15.4566 25.463 15.016C25.4669 14.5754 25.6436 14.154 25.9551 13.8424C26.2667 13.5308 26.6881 13.3541 27.1287 13.3503C27.5693 13.3465 27.9938 13.5158 28.3107 13.8219ZM21.2767 18.4765C21.6077 18.4765 21.9355 18.5417 22.2413 18.6684C22.5471 18.795 22.825 18.9807 23.059 19.2147C23.2931 19.4488 23.4787 19.7267 23.6054 20.0325C23.7321 20.3383 23.7973 20.666 23.7973 20.997C23.7973 21.328 23.7321 21.6558 23.6054 21.9616C23.4787 22.2674 23.2931 22.5453 23.059 22.7793C22.825 23.0134 22.5471 23.199 22.2413 23.3257C21.9355 23.4524 21.6077 23.5175 21.2767 23.5175C20.6083 23.5175 19.9671 23.252 19.4945 22.7793C19.0218 22.3066 18.7562 21.6655 18.7562 20.997C18.7562 20.3285 19.0218 19.6874 19.4945 19.2147C19.9671 18.7421 20.6083 18.4765 21.2767 18.4765Z" fill="white"/>
</svg>
