<svg width="106" height="41" viewBox="0 0 106 41" fill="none" xmlns="http://www.w3.org/2000/svg">
<path d="M32.064 7.2H35.184V24H32.064V7.2ZM23.376 24H20.256V7.2H23.376V24ZM32.304 16.8H23.112V14.136H32.304V16.8ZM47.2937 24V21.408L47.1257 20.856V16.32C47.1257 15.44 46.8617 14.76 46.3337 14.28C45.8057 13.784 45.0057 13.536 43.9337 13.536C43.2137 13.536 42.5017 13.648 41.7977 13.872C41.1097 14.096 40.5257 14.408 40.0457 14.808L38.8697 12.624C39.5577 12.096 40.3737 11.704 41.3177 11.448C42.2777 11.176 43.2697 11.04 44.2937 11.04C46.1497 11.04 47.5817 11.488 48.5897 12.384C49.6137 13.264 50.1257 14.632 50.1257 16.488V24H47.2937ZM43.2617 24.168C42.3017 24.168 41.4617 24.008 40.7417 23.688C40.0217 23.352 39.4617 22.896 39.0617 22.32C38.6777 21.728 38.4857 21.064 38.4857 20.328C38.4857 19.608 38.6537 18.96 38.9897 18.384C39.3417 17.808 39.9097 17.352 40.6937 17.016C41.4777 16.68 42.5177 16.512 43.8137 16.512H47.5337V18.504H44.0297C43.0057 18.504 42.3177 18.672 41.9657 19.008C41.6137 19.328 41.4377 19.728 41.4377 20.208C41.4377 20.752 41.6537 21.184 42.0857 21.504C42.5177 21.824 43.1177 21.984 43.8857 21.984C44.6217 21.984 45.2777 21.816 45.8537 21.48C46.4457 21.144 46.8697 20.648 47.1257 19.992L47.6297 21.792C47.3417 22.544 46.8217 23.128 46.0697 23.544C45.3337 23.96 44.3977 24.168 43.2617 24.168ZM59.3998 24.168C58.3118 24.168 57.3518 23.968 56.5198 23.568C55.6878 23.152 55.0398 22.528 54.5758 21.696C54.1118 20.848 53.8798 19.784 53.8798 18.504V11.184H56.8798V18.096C56.8798 19.248 57.1358 20.112 57.6478 20.688C58.1758 21.248 58.9198 21.528 59.8798 21.528C60.5838 21.528 61.1918 21.384 61.7038 21.096C62.2318 20.808 62.6398 20.376 62.9278 19.8C63.2318 19.224 63.3838 18.512 63.3838 17.664V11.184H66.3838V24H63.5278V20.544L64.0318 21.6C63.5998 22.432 62.9678 23.072 62.1358 23.52C61.3038 23.952 60.3918 24.168 59.3998 24.168ZM70.3118 24V6.192H73.3118V24H70.3118ZM81.2093 24.168C80.1373 24.168 79.1053 24.032 78.1133 23.76C77.1373 23.472 76.3613 23.128 75.7853 22.728L76.9373 20.448C77.5133 20.816 78.2013 21.12 79.0013 21.36C79.8013 21.6 80.6013 21.72 81.4013 21.72C82.3453 21.72 83.0253 21.592 83.4413 21.336C83.8733 21.08 84.0893 20.736 84.0893 20.304C84.0893 19.952 83.9453 19.688 83.6573 19.512C83.3693 19.32 82.9933 19.176 82.5293 19.08C82.0653 18.984 81.5453 18.896 80.9693 18.816C80.4093 18.736 79.8413 18.632 79.2653 18.504C78.7053 18.36 78.1933 18.16 77.7293 17.904C77.2653 17.632 76.8893 17.272 76.6013 16.824C76.3133 16.376 76.1693 15.784 76.1693 15.048C76.1693 14.232 76.4013 13.528 76.8652 12.936C77.3293 12.328 77.9773 11.864 78.8092 11.544C79.6573 11.208 80.6573 11.04 81.8093 11.04C82.6733 11.04 83.5453 11.136 84.4253 11.328C85.3053 11.52 86.0333 11.792 86.6093 12.144L85.4573 14.424C84.8493 14.056 84.2333 13.808 83.6093 13.68C83.0013 13.536 82.3933 13.464 81.7853 13.464C80.8733 13.464 80.1933 13.6 79.7453 13.872C79.3133 14.144 79.0973 14.488 79.0973 14.904C79.0973 15.288 79.2413 15.576 79.5293 15.768C79.8173 15.96 80.1933 16.112 80.6573 16.224C81.1213 16.336 81.6333 16.432 82.1933 16.512C82.7693 16.576 83.3373 16.68 83.8973 16.824C84.4573 16.968 84.9693 17.168 85.4333 17.424C85.9133 17.664 86.2973 18.008 86.5853 18.456C86.8733 18.904 87.0173 19.488 87.0173 20.208C87.0173 21.008 86.7773 21.704 86.2973 22.296C85.8333 22.888 85.1693 23.352 84.3053 23.688C83.4413 24.008 82.4093 24.168 81.2093 24.168Z" fill="black"/>
<path d="M0 38.3823C0 37.0666 1.06661 36 2.38234 36H103.169C104.733 36 106 34.7326 106 33.1693C106 31.4798 104.53 30.1665 102.851 30.3565L53 36L2.60609 40.7541C1.20818 40.886 0 39.7865 0 38.3823Z" fill="#AF210E"/>
</svg>
