<svg width="26" height="26" viewBox="0 0 26 26" fill="none" xmlns="http://www.w3.org/2000/svg">
<path fill-rule="evenodd" clip-rule="evenodd" d="M14.5962 1.37134C14.1398 1.01631 13.5781 0.823547 12.9999 0.823547C12.4216 0.823547 11.8599 1.01631 11.4035 1.37134L0.504525 9.84717C-0.473056 10.6103 0.0651335 12.1767 1.30401 12.1767H2.60008V22.5765C2.60008 23.2661 2.874 23.9274 3.36159 24.415C3.84917 24.9025 4.51048 25.1765 5.20003 25.1765H11.6999V16.0766C11.6999 15.7319 11.8369 15.4012 12.0807 15.1574C12.3244 14.9136 12.6551 14.7767 12.9999 14.7767C13.3446 14.7767 13.6753 14.9136 13.9191 15.1574C14.1629 15.4012 14.2998 15.7319 14.2998 16.0766V25.1765H20.7997C21.4893 25.1765 22.1506 24.9025 22.6382 24.415C23.1257 23.9274 23.3997 23.2661 23.3997 22.5765V12.1767H24.6957C25.9333 12.1767 26.4741 10.6103 25.4952 9.84847L14.5962 1.37134Z" fill="#D7D7D7"/>
</svg>
