<svg width="58" height="27" viewBox="0 0 58 27" fill="none" xmlns="http://www.w3.org/2000/svg">
<g filter="url(#filter0_d_1_121)">
<rect x="4" width="50" height="18.4783" rx="4.1996" fill="#FF0000"/>
<path d="M13.6379 4.44387C13.7004 4.50625 13.75 4.58034 13.7838 4.66189C13.8176 4.74344 13.835 4.83085 13.835 4.91913C13.835 5.0074 13.8176 5.09482 13.7838 5.17636C13.75 5.25791 13.7004 5.332 13.6379 5.39439C12.63 6.40255 12.0637 7.76981 12.0637 9.19545C12.0637 10.6211 12.63 11.9883 13.6379 12.9965C13.7021 13.0585 13.7533 13.1326 13.7885 13.2146C13.8237 13.2965 13.8422 13.3847 13.843 13.4738C13.8438 13.563 13.8268 13.6515 13.793 13.7341C13.7592 13.8166 13.7093 13.8916 13.6463 13.9547C13.5832 14.0178 13.5082 14.0676 13.4256 14.1014C13.3431 14.1352 13.2546 14.1522 13.1654 14.1514C13.0763 14.1506 12.9881 14.1321 12.9061 14.0969C12.8242 14.0617 12.7501 14.0105 12.6881 13.9464C10.0636 11.3225 10.0636 7.0677 12.6881 4.44387C12.8141 4.31794 12.9849 4.24719 13.163 4.24719C13.3411 4.24719 13.512 4.31794 13.6379 4.44387ZM22.1906 4.44387C24.8144 7.06837 24.8144 11.3225 22.1906 13.9464C22.0646 14.0724 21.8938 14.1432 21.7156 14.1433C21.5374 14.1434 21.3665 14.0726 21.2404 13.9467C21.1144 13.8207 21.0435 13.6499 21.0435 13.4717C21.0434 13.2935 21.1141 13.1226 21.2401 12.9965C22.2481 11.9883 22.8143 10.6211 22.8143 9.19545C22.8143 7.76981 22.2481 6.40255 21.2401 5.39439C21.114 5.26834 21.0432 5.09738 21.0432 4.91913C21.0432 4.74087 21.114 4.56991 21.2401 4.44387C21.3661 4.31782 21.5371 4.24701 21.7153 4.24701C21.8936 4.24701 22.0645 4.31782 22.1906 4.44387ZM15.631 6.37446C15.7569 6.50043 15.8277 6.67126 15.8277 6.84938C15.8277 7.0275 15.7569 7.19833 15.631 7.3243C15.3865 7.56883 15.1925 7.85912 15.0601 8.17862C14.9278 8.49812 14.8597 8.84055 14.8597 9.18638C14.8597 9.5322 14.9278 9.87464 15.0601 10.1941C15.1925 10.5136 15.3865 10.8039 15.631 11.0485C15.6934 11.1109 15.7428 11.1849 15.7766 11.2665C15.8103 11.348 15.8277 11.4354 15.8276 11.5236C15.8276 11.6118 15.8102 11.6992 15.7764 11.7807C15.7426 11.8622 15.6931 11.9363 15.6307 11.9986C15.5683 12.061 15.4942 12.1105 15.4127 12.1442C15.3311 12.1779 15.2437 12.1953 15.1555 12.1953C15.0673 12.1952 14.9799 12.1778 14.8984 12.144C14.8169 12.1102 14.7429 12.0607 14.6805 11.9983C13.9347 11.2525 13.5158 10.241 13.5158 9.18638C13.5158 8.13171 13.9347 7.12023 14.6805 6.37446C14.7429 6.312 14.817 6.26246 14.8985 6.22865C14.9801 6.19485 15.0675 6.17745 15.1558 6.17745C15.244 6.17745 15.3314 6.19485 15.413 6.22865C15.4945 6.26246 15.5686 6.312 15.631 6.37446ZM20.305 6.37446C21.0508 7.12023 21.4697 8.13171 21.4697 9.18638C21.4697 10.241 21.0508 11.2525 20.305 11.9983C20.1783 12.1207 20.0086 12.1884 19.8325 12.1868C19.6564 12.1853 19.4879 12.1147 19.3633 11.9901C19.2388 11.8656 19.1681 11.6971 19.1666 11.521C19.1651 11.3448 19.2328 11.1751 19.3552 11.0485C19.5997 10.8039 19.7937 10.5136 19.926 10.1941C20.0584 9.87464 20.1265 9.5322 20.1265 9.18638C20.1265 8.84055 20.0584 8.49812 19.926 8.17862C19.7937 7.85912 19.5997 7.56883 19.3552 7.3243C19.2328 7.19761 19.1651 7.02793 19.1666 6.8518C19.1681 6.67567 19.2388 6.50719 19.3633 6.38264C19.4879 6.2581 19.6564 6.18745 19.8325 6.18592C20.0086 6.18439 20.1783 6.2521 20.305 6.37446ZM17.4931 8.23519C17.6254 8.23519 17.7564 8.26125 17.8787 8.31189C18.0009 8.36253 18.112 8.43675 18.2056 8.53031C18.2991 8.62388 18.3734 8.73496 18.424 8.85721C18.4746 8.97946 18.5007 9.11048 18.5007 9.2428C18.5007 9.37513 18.4746 9.50615 18.424 9.6284C18.3734 9.75065 18.2991 9.86173 18.2056 9.9553C18.112 10.0489 18.0009 10.1231 17.8787 10.1737C17.7564 10.2244 17.6254 10.2504 17.4931 10.2504C17.2258 10.2504 16.9696 10.1443 16.7806 9.9553C16.5916 9.76633 16.4855 9.51004 16.4855 9.2428C16.4855 8.97557 16.5916 8.71928 16.7806 8.53031C16.9696 8.34135 17.2258 8.23519 17.4931 8.23519Z" fill="white"/>
<path d="M28.8935 12.1992V6.31977H29.7335V11.4685H32.9168V12.1992H28.8935ZM33.8806 12.1992V6.31977H34.7205V12.1992H33.8806ZM38.1199 12.1992L35.533 6.31977H36.4401L38.8171 11.7457H38.2963L40.6901 6.31977H41.53L38.9515 12.1992H38.1199ZM43.0441 8.85633H46.0678V9.57027H43.0441V8.85633ZM43.1197 11.4685H46.5466V12.1992H42.2798V6.31977H46.429V7.0505H43.1197V11.4685Z" fill="white"/>
</g>
<defs>
<filter id="filter0_d_1_121" x="0" y="0" width="58" height="26.4783" filterUnits="userSpaceOnUse" color-interpolation-filters="sRGB">
<feFlood flood-opacity="0" result="BackgroundImageFix"/>
<feColorMatrix in="SourceAlpha" type="matrix" values="0 0 0 0 0 0 0 0 0 0 0 0 0 0 0 0 0 0 127 0" result="hardAlpha"/>
<feOffset dy="4"/>
<feGaussianBlur stdDeviation="2"/>
<feComposite in2="hardAlpha" operator="out"/>
<feColorMatrix type="matrix" values="0 0 0 0 0 0 0 0 0 0 0 0 0 0 0 0 0 0 0.25 0"/>
<feBlend mode="normal" in2="BackgroundImageFix" result="effect1_dropShadow_1_121"/>
<feBlend mode="normal" in="SourceGraphic" in2="effect1_dropShadow_1_121" result="shape"/>
</filter>
</defs>
</svg>
