<svg width="26" height="26" viewBox="0 0 26 26" fill="none" xmlns="http://www.w3.org/2000/svg">
<path d="M13 0C5.85 0 5.81145e-08 5.85 5.81145e-08 13C5.81145e-08 15.99 1.04 18.85 2.99 21.19L0.39 23.79C-0.13 24.31 -0.13 25.09 0.39 25.61C0.65 25.87 0.91 26 1.3 26H13C20.15 26 26 20.15 26 13C26 5.85 20.15 0 13 0ZM7.8 14.3C7.02 14.3 6.5 13.78 6.5 13C6.5 12.22 7.02 11.7 7.8 11.7C8.58 11.7 9.1 12.22 9.1 13C9.1 13.78 8.58 14.3 7.8 14.3ZM13 14.3C12.22 14.3 11.7 13.78 11.7 13C11.7 12.22 12.22 11.7 13 11.7C13.78 11.7 14.3 12.22 14.3 13C14.3 13.78 13.78 14.3 13 14.3ZM18.2 14.3C17.42 14.3 16.9 13.78 16.9 13C16.9 12.22 17.42 11.7 18.2 11.7C18.98 11.7 19.5 12.22 19.5 13C19.5 13.78 18.98 14.3 18.2 14.3Z" fill="#D7D7D7"/>
</svg>
