<svg width="71" height="70" viewBox="0 0 71 70" fill="none" xmlns="http://www.w3.org/2000/svg">
<rect width="49.7035" height="49.7035" rx="8.4546" transform="matrix(0.710025 -0.704176 0.710025 0.704176 0.418579 35.0001)" fill="#222222"/>
<path d="M20.981 36.2433C20.6206 36.2433 20.275 36.1013 20.0202 35.8486C19.7654 35.5959 19.6222 35.2531 19.6222 34.8957C19.6222 34.5383 19.7654 34.1956 20.0202 33.9428C20.275 33.6901 20.6206 33.5481 20.981 33.5481H37.739V24.1152C37.7392 23.8489 37.819 23.5886 37.9683 23.3672C38.1176 23.1458 38.3298 22.9732 38.5779 22.8713C38.826 22.7694 39.099 22.7428 39.3625 22.7947C39.6259 22.8466 39.8679 22.9747 40.0579 23.1629L50.9279 33.9434C51.1824 34.1961 51.3253 34.5386 51.3253 34.8957C51.3253 35.2528 51.1824 35.5953 50.9279 35.848L40.0579 46.6285C39.8679 46.8167 39.6259 46.9449 39.3625 46.9968C39.099 47.0487 38.826 47.022 38.5779 46.9201C38.3298 46.8182 38.1176 46.6456 37.9683 46.4243C37.819 46.2029 37.7392 45.9426 37.739 45.6762V36.2433H20.981Z" fill="white"/>
</svg>
