<svg width="26" height="26" viewBox="0 0 26 26" fill="none" xmlns="http://www.w3.org/2000/svg">
<path d="M10.3772 -0.00277642C8.75308 -0.00190831 7.15176 0.379979 5.702 1.11219C4.25224 1.8444 2.99448 2.90652 2.02981 4.21317C1.06513 5.51982 0.420453 7.03456 0.147582 8.63564C-0.125288 10.2367 -0.0187384 11.8795 0.458669 13.4319C0.936076 14.9843 1.77102 16.4031 2.8964 17.5742C4.02179 18.7453 5.40621 19.636 6.93841 20.1748C8.4706 20.7136 10.1078 20.8855 11.7185 20.6765C13.3292 20.4676 14.8684 19.8837 16.2124 18.9718L22.6289 25.3832C22.8072 25.5744 23.0221 25.7278 23.2609 25.8342C23.4997 25.9406 23.7575 25.9979 24.0189 26.0025C24.2803 26.0071 24.5399 25.959 24.7823 25.8611C25.0247 25.7632 25.2449 25.6174 25.4298 25.4326C25.6147 25.2477 25.7604 25.0275 25.8583 24.7851C25.9562 24.5427 26.0043 24.2831 25.9997 24.0217C25.9951 23.7603 25.9379 23.5025 25.8315 23.2637C25.7251 23.0249 25.5717 22.8099 25.3804 22.6317L18.969 16.2152C20.0297 14.654 20.6448 12.8334 20.7482 10.9488C20.8516 9.06431 20.4394 7.18725 19.5558 5.51947C18.6723 3.8517 17.3509 2.45629 15.7337 1.4833C14.1164 0.510313 12.2646 -0.00346117 10.3772 -0.00277642ZM3.888 10.38C3.888 8.65896 4.57169 7.0084 5.78866 5.79143C7.00563 4.57446 8.65619 3.89077 10.3772 3.89077C12.0983 3.89077 13.7489 4.57446 14.9658 5.79143C16.1828 7.0084 16.8665 8.65896 16.8665 10.38C16.8665 12.1011 16.1828 13.7516 14.9658 14.9686C13.7489 16.1856 12.0983 16.8693 10.3772 16.8693C8.65619 16.8693 7.00563 16.1856 5.78866 14.9686C4.57169 13.7516 3.888 12.1011 3.888 10.38Z" fill="#D7D7D7"/>
</svg>
