<svg width="400" height="158" viewBox="0 0 400 158" fill="none" xmlns="http://www.w3.org/2000/svg">
<path d="M12.9691 108.471C31.4295 108.204 39.983 81.5934 51.1186 59.1917C57.0901 58.3785 61.162 57.5653 66.8664 56.3425C65.6436 59.1917 40.6597 108.471 61.9753 108.471C73.7875 108.471 85.0537 88.1109 89.1257 82.2701C89.3987 82.003 89.3987 81.3203 88.9951 80.9167C88.176 80.0976 87.2262 80.6437 86.14 82.2701C80.9818 89.8738 71.342 105.485 62.2483 105.485C52.6085 105.485 66.3203 73.313 75.4139 54.9832C89.1257 51.7245 110.441 40.5949 118.455 29.7324C121.577 25.3874 124.426 19.9561 124.83 14.6614C125.512 6.92707 121.304 0 113.973 0C110.578 0 107.319 1.08625 104.333 2.85512C90.0754 11.8122 78.5362 30.1419 68.0832 53.6239C66.997 53.897 58.3128 55.7964 52.3355 56.6156C62.925 33.8043 68.6293 21.3154 68.7658 20.2292C68.9024 18.8699 67.27 16.2937 65.6436 16.2937C64.4208 16.2937 63.3346 18.0567 62.3848 19.0064C53.1546 30.1419 44.4646 42.2213 33.0619 40.7314C32.5158 40.5949 31.566 41.5446 31.8391 42.3578C31.9756 43.5806 32.7888 43.5806 33.7385 43.5806C41.6154 43.9901 48.9461 39.6451 56.9535 30.6821C54.781 35.4367 45.2778 55.933 44.6011 57.7018C19.6172 62.587 4.14254 75.3489 0.883773 89.0606C-1.8289 100.054 1.56639 108.607 12.9691 108.471ZM76.6367 52.2706C83.0177 39.6451 87.0897 31.9049 94.0168 22.1286C98.902 15.071 107.729 4.61805 115.736 4.61805C120.621 4.61805 122.527 9.09957 122.117 14.2578C120.081 32.5816 94.1533 46.9758 76.6367 52.2706ZM13.2362 105.621C3.7389 106.031 1.56639 97.341 3.7389 89.0606C6.99173 76.2987 23.149 64.7595 43.6514 60.278C31.7026 82.6796 26.1348 105.081 13.2362 105.621Z" fill="white"/>
<path d="M116.937 108.471C127.117 108.471 135.944 96.528 144.497 82.2702C144.901 81.5935 144.634 80.5073 143.548 80.5073C142.865 80.5073 141.915 81.5935 141.512 82.2702C134.044 94.6285 126.304 105.485 117.341 105.485C115.715 105.485 114.355 104.262 114.355 102.226C114.355 97.6142 118.16 88.9242 120.873 82.6798C123.182 77.3851 130.376 61.9105 130.376 60.5512C130.376 58.3787 129.017 57.4289 127.254 57.4289C124.678 57.4289 124.268 57.9691 120.6 64.3501C117.21 60.4146 114.219 57.9691 110.147 57.9691C97.3848 57.9691 81.9102 81.5935 81.9102 95.8454C81.9102 102.499 84.4922 108.067 89.6505 108.067C95.895 108.067 104.585 98.1544 109.197 91.6369C108.657 94.219 108.384 96.3915 108.384 98.4274C108.384 105.081 111.37 108.471 116.937 108.471ZM90.4637 104.808C88.4277 104.808 87.8816 103.313 87.8816 101.004C87.8816 89.6009 102.953 63.5369 113.002 63.5369C115.715 63.5369 117.887 65.8459 118.973 67.8819C117.341 71.4137 113.815 78.3348 112.183 81.8666C109.47 88.6512 96.4351 104.808 90.4637 104.808Z" fill="white"/>
<path d="M166.906 108.47C178.992 108.47 188.898 90.5503 194.603 82.2699C195.006 81.5932 194.87 81.0471 194.193 80.6435C193.107 79.9609 192.021 81.7297 191.617 82.2699C185.776 90.5503 177.223 105.485 167.179 105.485C159.576 105.485 174.237 77.7943 181.028 61.5006C181.704 59.7376 180.755 58.6514 178.172 58.2418C175.596 57.8323 174.374 59.055 173.151 61.5006C169.488 68.5582 166.497 74.399 162.971 82.2699C159.849 89.197 145.727 104.808 141.655 104.808C137.31 104.808 146.95 85.6652 159.029 61.9101C160.389 59.3281 157.813 58.5149 156.044 58.3784C153.741 58.2418 152.245 59.7376 151.022 61.7736C144.641 71.6804 126.584 107.93 141.655 107.93C146.95 107.93 155.094 100.463 159.302 94.3552C157.676 103.858 160.798 108.47 166.906 108.47Z" fill="white"/>
<path d="M193.781 108.334C206.27 110.239 217.673 89.464 222.701 82.2699C223.241 81.4567 222.701 80.6435 222.018 80.5069C221.205 80.3704 220.665 80.9165 219.709 82.2699C215.233 88.6508 204.098 107.384 194.458 105.348C190.25 104.398 195.954 90.1467 199.213 82.4064C204.507 69.6444 207.084 64.0826 210.615 58.1053C221.882 53.8968 234.103 41.4079 240.075 30.8185C246.046 20.3655 244.96 11.539 237.629 11.539C225.277 11.539 198.667 61.6371 190.523 82.4064C186.178 93.5419 185.501 107.117 193.781 108.334ZM212.248 54.1698C218.083 42.6307 232.067 18.8697 238.175 17.6529C241.838 16.9703 240.211 25.1201 237.226 30.0053C233.29 36.3862 221.882 49.4153 212.248 54.1698Z" fill="white"/>
<path d="M291.375 80.6435C290.562 80.0974 289.749 80.78 288.793 82.2699C281.735 93.4055 272.778 91.6366 270.333 89.197C277.254 80.234 296.13 49.1482 277.8 48.6022C262.462 48.1985 255.125 78.6075 265.584 89.8737C263.679 92.8594 251.463 105.485 245.758 105.485C235.305 105.485 251.599 71.817 257.844 57.1556C258.657 55.2562 256.348 53.7604 254.045 53.7604C251.599 53.7604 250.513 55.3927 249.7 57.1556C247.254 62.3138 244.268 69.781 241.823 77.3848C241.146 78.7441 240.464 80.234 239.65 82.2699C236.665 89.197 226.075 104.808 222.003 104.808C215.622 104.808 226.621 82.1334 237.478 57.1556C238.837 54.0334 235.578 52.8106 232.996 53.8969C231.779 54.443 230.96 55.5292 230.147 56.8826C223.63 67.6085 205.846 107.93 222.003 107.93C226.348 107.93 231.916 101.686 238.291 91.5001C236.938 100.873 238.428 108.067 245.758 108.067C254.312 108.067 265.988 95.4414 268.297 92.1827C275.764 95.7085 284.585 94.3552 291.785 82.2699C292.188 81.5933 291.921 81.0472 291.375 80.6435ZM267.887 87.0245C261.779 79.5573 269.923 52.407 279.836 52.407C286.626 52.407 276.168 76.2985 267.887 87.0245Z" fill="white"/>
<path d="M319.619 108.471C329.799 108.471 338.625 96.5278 347.179 82.2701C347.582 81.5934 347.315 80.5071 346.229 80.5071C345.546 80.5071 344.597 81.5934 344.193 82.2701C336.726 94.6284 328.985 105.485 320.022 105.485C318.396 105.485 317.037 104.262 317.037 102.226C317.037 97.6141 320.841 88.9241 323.554 82.6796C325.863 77.3849 333.057 61.9103 333.057 60.551C333.057 58.3785 331.698 57.4288 329.935 57.4288C327.359 57.4288 326.949 57.969 323.281 64.3499C319.892 60.4145 316.9 57.969 312.828 57.969C300.066 57.969 284.591 81.5934 284.591 95.8452C284.591 102.499 287.173 108.067 292.332 108.067C298.576 108.067 307.266 98.1542 311.878 91.6368C311.338 94.2188 311.065 96.3913 311.065 98.4273C311.065 105.081 314.051 108.471 319.619 108.471ZM293.145 104.808C291.109 104.808 290.563 103.312 290.563 101.003C290.563 89.6008 305.634 63.5367 315.683 63.5367C318.396 63.5367 320.568 65.8458 321.655 67.8817C320.022 71.4135 316.496 78.3347 314.864 81.8664C312.151 88.6511 299.116 104.808 293.145 104.808Z" fill="white"/>
<path d="M399.167 80.6433C398.08 79.9607 396.994 81.7295 395.635 83.629C385.864 97.8808 379.347 105.758 367.125 109.42C371.743 99.9168 386.814 68.6945 389.39 63.8094C390.75 61.2273 391.426 58.3782 388.304 57.4284C384.909 56.3422 383.822 57.8321 380.837 63.8094C376.088 73.3126 373.239 79.4205 367.944 90.5501C361.967 98.8365 355.995 105.485 349.205 105.485C344.046 105.485 348.255 91.6364 351.923 82.8158C354.096 77.6576 362.376 63.2633 362.78 61.0908C363.053 58.9183 361.29 58.3782 359.527 58.3782C358.571 58.3782 356.535 58.7877 355.586 60.1411C353.55 62.7231 349.614 68.0179 343.779 82.8158C339.025 94.628 338.888 108.47 349.205 108.47C354.096 108.47 358.708 105.348 363.326 100.463L358.441 110.779C333.19 115.937 312.688 129.786 312.688 146.216C312.688 153.814 318.795 157.619 323.55 157.619C346.355 157.619 357.218 128.563 365.362 113.088C382.196 107.93 389.254 98.1538 398.62 83.7655C399.03 82.9523 400.526 81.4565 399.167 80.6433ZM323.55 154.633C319.205 154.633 315.673 150.828 315.673 146.216C315.673 136.303 328.026 120.282 356.672 114.584C351.241 128.563 340.651 154.633 323.55 154.633Z" fill="white"/>
</svg>
